HIERARCHY
ROOT pelvis
{
  OFFSET 0 100 0
  CHANNELS 6 Xposition Yposition Zposition Zrotation Xrotation Yrotation
  JOINT pelvis_right_femur
  {
    OFFSET -10.78128 -3.44521 -0.5502486
    CHANNELS 3 Zrotation Xrotation Yrotation
    JOINT right_femur_tibia
    {
      OFFSET -0.8047443 -44.0398 -0.1307829
      CHANNELS 3 Zrotation Xrotation Yrotation
      JOINT right_tibia_foot
      {
        OFFSET 3.006224 -47.83518 -5
        CHANNELS 3 Zrotation Xrotation Yrotation
        End Site
        {
          OFFSET 0 -5 15
        }
      }
    }
  }
  JOINT pelvis_left_femur
  {
    OFFSET 10.78128 -3.44521 -0.5502486
    CHANNELS 3 Zrotation Xrotation Yrotation
    JOINT left_femur_tibia
    {
      OFFSET 0.8047443 -44.0398 -0.1307829
      CHANNELS 3 Zrotation Xrotation Yrotation
      JOINT left_tibia_foot
      {
        OFFSET -4.370144 -48.10324 -4.275266
        CHANNELS 3 Zrotation Xrotation Yrotation
        End Site
        {
          OFFSET 0 -5 15
        }
      }
    }
  }
  JOINT pelvis_spine1
  {
    OFFSET 0 6.468898 -3.129235
    CHANNELS 3 Zrotation Xrotation Yrotation
    JOINT spine1
    {
      OFFSET 0 23.15396 4.99043
      CHANNELS 3 Zrotation Xrotation Yrotation
      JOINT spine2
      {
        OFFSET 0 20.79997 -5.064912
        CHANNELS 3 Zrotation Xrotation Yrotation
        JOINT neck
        {
          OFFSET 0 14.38658 9.616178
          CHANNELS 3 Zrotation Xrotation Yrotation
          End Site
          {
            OFFSET 0 20 0
          }
        }
      }
      JOINT right_manubrium
      {
        OFFSET -5.722621 16.35077 3.967754
        CHANNELS 3 Zrotation Xrotation Yrotation
        JOINT right_clavicle
        {
          OFFSET -13.16364 1.694482 -4.693211
          CHANNELS 3 Zrotation Xrotation Yrotation
          JOINT right_humerus
          {
            OFFSET -28.5034 -0.3100689 -2.792744
            CHANNELS 3 Zrotation Xrotation Yrotation
            JOINT right_radius
            {
              OFFSET -25.15693 0.02248979 -1.271978
              CHANNELS 3 Zrotation Xrotation Yrotation
              End Site
              {
                OFFSET -15 0 0
              }
            }
          }
        }
      }
      JOINT left_manubrium
      {
        OFFSET 5.722621 16.35077 3.967754
        CHANNELS 3 Zrotation Xrotation Yrotation
        JOINT left_clavicle
        {
          OFFSET 13.16364 1.694482 -4.693211
          CHANNELS 3 Zrotation Xrotation Yrotation
          JOINT left_humerus
          {
            OFFSET 29.39168 -1.063119 -2.237045
            CHANNELS 3 Zrotation Xrotation Yrotation
            JOINT left_radius
            {
              OFFSET 24.59957 -0.9528479 0.9047498
              CHANNELS 3 Zrotation Xrotation Yrotation
              End Site
              {
                OFFSET 15 -0 -0
              }
            }
          }
        }
      }
    }
  }
}
MOTION
Frames: 15
Frame Time: 0.0416666666667
0 103.5113 0 1.754099 -0.9429451 -0.1216469 5.087805 -15.97815 10.80311 -0 39.99699 -0 -4.887866 -17.47397 -2.621417 -8.190701 10.01257 -22.60308 -0 5.125013 -0 21.67296 -9.992862 31.82436 -2.580685 -2.904977 5.095686 2.66902 9.834081 -7.831126 1.592238 20.95442 6.205164 2.76445 -25.91503 9.409088 5.029672 -20.2466 11.22378 86.15022 34.84952 -18.47579 -0 0 16.46418 -8.740127 8.826225 4.514893 6.611888 -20.58372 -0.3104184 -93.07845 22.45201 21.82251 0 0 -13.7988 12.46625 15.81312 -0.790906
0.3240961 103.7101 1.463422 1.661512 -0.003227363 -0.2473733 5.634233 -17.46967 11.20808 -0 39.63182 -0 -5.171733 -16.59789 -2.21525 -8.391552 9.419309 -22.36754 -0 5.231987 -0 23.20592 -9.632604 32.04276 -2.318836 -2.767137 4.844071 2.889765 9.688732 -8.102751 1.544047 20.60853 6.522017 3.007864 -26.44245 9.551395 4.967545 -19.7164 11.23257 86.73558 34.77925 -19.49017 -0 0 15.47702 -8.752867 9.13256 4.343051 6.915841 -20.88583 -0.2198522 -92.64759 21.97943 20.83868 0 0 -14.88131 12.73684 15.50925 -1.268273
0.650289 103.5905 3.574288 1.030075 0.6679954 -0.2295859 5.486612 -21.85333 7.738329 -0 31.51551 -0 -6.298111 -12.37968 -1.307025 -7.714752 10.72851 -20.80545 -0 6.135522 -0 16.99518 -14.81647 28.01186 -2.279705 -2.65123 4.768782 2.911385 9.674895 -8.075984 1.520325 20.59111 6.539384 3.071346 -26.34316 9.43666 5.137002 -19.49423 11.28996 86.50539 34.66395 -19.40314 -0 0 15.26496 -8.772095 9.163976 4.623846 6.800935 -20.83165 -0.3735777 -92.52945 22.34458 20.68995 0 0 -15.26488 12.06605 15.3481 -0.4484025
0.9474718 103.2553 6.149491 0.4383353 2.03416 -0.05787469 5.451888 -26.15804 6.190218 -0 25.46917 -0 -6.711204 -9.721312 -1.137314 -7.183562 11.4584 -19.79749 -0 6.664341 -0 11.45754 -18.94615 24.36801 -2.195613 -2.532331 4.659127 2.972842 9.631437 -8.114772 1.490355 20.50617 6.620906 3.173031 -26.37288 9.376353 5.247146 -19.2148 11.33194 86.465 34.57102 -19.55908 -0 0 14.89501 -8.797162 9.250299 4.793868 6.780362 -20.85759 -0.4702685 -92.34809 22.5129 20.36796 0 0 -15.77714 11.61746 15.15503 0.06956966
1.204508 102.7036 9.250044 -0.03703169 2.999395 0.2675051 5.5589 -29.8607 4.815465 -0 20.54461 -0 -7.229806 -6.803499 -0.8697494 -6.744043 12.14913 -18.3967 -0 7.677046 -0 8.025738 -21.2522 21.3476 -2.117573 -2.421021 4.515967 3.043833 9.558703 -8.170536 1.464919 20.40266 6.729497 3.302898 -26.41464 9.335986 5.417412 -18.87564 11.35446 86.43218 34.52416 -19.81837 -0 0 14.497 -8.731033 9.333123 4.902957 6.795194 -20.88472 -0.5674274 -92.17999 22.79447 19.99687 0 0 -16.38036 11.09193 14.97148 0.7075306
1.40958 102.0513 12.9317 -0.5066844 3.857614 0.729796 5.920477 -32.85994 3.831466 -0 16.64801 -0 -7.798298 -3.981185 -0.5468586 -6.324174 12.83779 -17.05835 -0 9.54124 -0 5.510016 -22.45644 18.7786 -2.013046 -2.293834 4.347828 3.135259 9.472256 -8.255217 1.432323 20.26745 6.868984 3.456772 -26.49871 9.304146 5.574866 -18.48804 11.37573 86.47112 34.47427 -20.18581 -0 0 13.99985 -8.677208 9.44837 4.993738 6.836772 -20.94655 -0.6596439 -91.96792 23.02322 19.53363 0 0 -17.07984 10.58813 14.75184 1.306406
1.552208 101.4081 17.27288 -1.01462 4.316318 1.291698 6.445627 -34.57248 2.971557 -0 13.91561 -0 -8.517934 -1.250097 -0.1654491 -5.795871 13.60533 -15.78874 -0 12.73853 -0 3.029786 -22.57852 16.30331 -1.893489 -2.138293 4.17624 3.228776 9.389755 -8.340386 1.388523 20.13167 7.010487 3.61714 -26.56282 9.242597 5.718206 -18.08209 11.40812 86.51448 34.40468 -20.54162 -0 0 13.45316 -8.686698 9.580033 5.138584 6.856047 -21.01625 -0.7730888 -91.71686 23.22917 19.04159 0 0 -17.81105 10.02659 14.48322 1.963187
1.632193 100.9367 22.31061 -1.608128 4.34558 1.886367 7.165958 -34.55832 2.376835 -0 12.70314 -0 -9.327134 0.9109159 0.1522168 -5.070377 14.19492 -14.65832 -0 17.59952 -0 0.1106977 -21.40733 13.72183 -1.770589 -1.948422 4.028574 3.305993 9.330325 -8.402311 1.330292 20.02404 7.12665 3.762685 -26.55908 9.122906 5.826444 -17.70168 11.46076 86.5203 34.30732 -20.77807 -0 0 12.91111 -8.821961 9.714765 5.390763 6.817441 -21.07534 -0.9175996 -91.4304 23.39094 18.57855 0 0 -18.48835 9.398341 14.15759 2.683977
1.670065 100.8068 27.9939 -2.263464 3.925299 2.393518 8.030943 -32.49386 2.165916 -0 13.03628 -0 -10.03781 1.856358 0.2101187 -4.144632 14.1314 -13.58132 -0 24.33727 -0 -3.084423 -18.64526 11.11112 -1.664139 -1.725925 3.932483 3.345219 9.308442 -8.41544 1.257807 19.97468 7.19094 3.873384 -26.43699 8.923258 5.890778 -17.39135 11.5365 86.43764 34.19017 -20.79023 -0 0 12.44865 -9.126068 9.832525 5.786329 6.693955 -21.09875 -1.097906 -91.12612 23.51377 18.20971 0 0 -19.02211 8.689548 13.77824 3.489047
1.707611 101.1533 34.1408 -2.864334 3.153186 2.65439 8.846559 -28.55493 2.397477 -0 14.37008 -0 -10.43521 1.089102 -0.1811941 -3.173442 12.81146 -12.40442 -0 32.85163 -0 -5.787794 -14.41095 8.878407 -1.595338 -1.480093 3.918442 3.32468 9.336419 -8.355634 1.174694 20.00873 7.179437 3.929858 -26.1581 8.633406 5.900033 -17.20157 11.6344 86.22071 34.06467 -20.4808 -0 0 12.15269 -9.635026 9.914955 6.343572 6.470733 -21.06188 -1.307165 -90.82932 23.59121 18.00172 0 0 -19.31811 7.916814 13.35673 4.362422
1.78619 102.0117 40.46036 -3.176689 2.081633 2.527417 9.261325 -23.44757 2.87577 -0 15.65488 -0 -10.49837 -1.085434 -0.9837498 -2.45323 9.858989 -11.02915 -0 42.60714 -0 -7.106834 -9.646355 7.595739 -1.582271 -1.227549 4.013686 3.22717 9.420641 -8.203873 1.088905 20.13909 7.076137 3.9187 -25.70592 8.259451 5.847111 -17.17838 11.74952 85.83174 33.93834 -19.77758 -0 0 12.1096 -10.36296 9.948951 7.057104 6.148678 -20.94314 -1.528128 -90.57323 23.61496 18.01489 0 0 -19.2991 7.11716 12.91279 5.264811
1.910429 103.2951 46.64879 -2.960353 0.6027278 1.978281 9.019205 -17.96486 3.198744 -0 15.96211 -0 -10.40766 -3.441576 -1.840655 -2.210432 5.422462 -9.612872 -0 52.44266 -0 -6.901421 -5.901471 7.709189 -1.63207 -0.9878825 4.234703 3.046559 9.560405 -7.952327 1.011123 20.35901 6.877894 3.836555 -25.09556 7.823818 5.729216 -17.35099 11.87531 85.25283 33.80178 -18.65504 -0 0 12.37938 -11.29681 9.932093 7.899435 5.74448 -20.73129 -1.737506 -90.38969 23.5702 18.28668 0 0 -18.92898 6.341967 12.46658 6.137908
2.031706 104.8097 52.49627 -2.205668 -1.40711 1.136718 8.246202 -12.39783 3.07433 -0 15.07962 -0 -10.24469 -4.807472 -2.335083 -2.322855 0.04508855 -8.431952 -0 60.39773 -0 -6.020532 -4.267756 9.293681 -1.73915 -0.7779029 4.582785 2.788876 9.74831 -7.605258 0.9517872 20.64467 6.593715 3.690458 -24.36553 7.356338 5.550749 -17.72431 12.00541 84.48802 33.62627 -17.13834 -0 0 12.98328 -12.3975 9.871323 8.831012 5.283055 -20.42657 -1.915413 -90.30309 23.44829 18.82697 0 0 -18.22139 5.630356 12.03154 6.937024
2.08443 106.2741 57.93664 -1.2412 -3.709665 0.2248354 7.398274 -6.654549 2.656409 -0 13.42127 -0 -9.879039 -5.272106 -2.378112 -2.276799 -5.755436 -7.472082 -0 64.01114 -0 -5.34807 -4.485381 11.83615 -1.891211 -0.608181 5.049264 2.465483 9.972668 -7.171717 0.9188145 20.9678 6.237368 3.492919 -23.55622 6.882023 5.322987 -18.28663 12.13459 83.55098 33.3753 -15.2763 -0 0 13.91898 -13.61531 9.776975 9.815388 4.786135 -20.03335 -2.051261 -90.33313 23.26112 19.63401 0 0 -17.21784 4.986117 11.61327 7.661094
2.057713 107.3694 63.03989 -0.5218536 -5.645527 -0.6186994 6.855807 -0.91884 2.372424 -0 11.54953 -0 -9.276569 -6.044579 -2.21775 -1.512576 -11.62745 -6.4008 -0 61.525 -0 -4.903218 -5.259827 14.38732 -2.075424 -0.4826956 5.621448 2.086867 10.21723 -6.659591 0.9171037 21.304 5.824073 3.259463 -22.69802 6.41718 5.063387 -19.01731 12.25783 82.45445 33.02355 -13.11942 -0 0 15.17626 -14.90468 9.66146 10.82475 4.269465 -19.55392 -2.141344 -90.49945 23.04439 20.70537 0 0 -15.96808 4.375532 11.21299 8.357116
